# xmcd
#
# Track frame offsets: 
#        150
#        10646
#        21432
#        32052
#        43869
#        54201
#        66412
#        76436
#        86647
#        96923
#        108353
#        117202
#        126821
#        136757
#        147886
#        157734
#        169041
#        179750
#        190603
#        202550
#        213521
#
# Disc length: 2978 seconds
#
# Revision: 0
# Processed by: cddbd v1.5.2PL0 Copyright (c) Steve Scherf et al.
# Submitted via: ExactAudioCopyFreeDBPlugin 1.0
#
DISCID=150ba015
DTITLE=Various Artist - The Super Rare Doo Wop Box [Rock Beat box set
DTITLE=]
DYEAR=2015
DGENRE=Rhythm and Blues
TTITLE0=The Laddins - Did It
TTITLE1=The Vocaltones - Walking with My Baby
TTITLE2=The Chandeliers - Blueberry Sweet
TTITLE3=The Elchords - Peppermint Stick
TTITLE4=The Unique Teens - Jeannie
TTITLE5=Lewis Lymon and The Teenchords - Dance Girl
TTITLE6=The Ebb-Tides - Franny Franny
TTITLE7=The Rajahs - Shifting Sands
TTITLE8=Nicky and The Nobles - School Bells
TTITLE9=The Schoolboys - Angel of Love
TTITLE10=The Nobles - Poor Rock 'n' Roll
TTITLE11=Jesse Belvin - Deacon Dan Tucker
TTITLE12=The Delrays - Our Love is True
TTITLE13=The Delrays - One Kiss, One Smile and a Dream
TTITLE14=Dino and The Diplomats - My Dream
TTITLE15=The Dee Cals - A Wonderful Day
TTITLE16=The Fabulons - Smoke from Your Cigarette
TTITLE17=The Dreamlovers - Zoom Zoom Zoom
TTITLE18=Little Jimmy and The Tops - Puppy Love
TTITLE19=The Corvairs - True, True Love
TTITLE20=The Camelots - Your Way
EXTD=
EXTT0=
EXTT1=
EXTT2=
EXTT3=
EXTT4=
EXTT5=
EXTT6=
EXTT7=
EXTT8=
EXTT9=
EXTT10=
EXTT11=
EXTT12=
EXTT13=
EXTT14=
EXTT15=
EXTT16=
EXTT17=
EXTT18=
EXTT19=
EXTT20=
PLAYORDER=
